<mxfile host="app.diagrams.net" modified="2024-06-18T22:16:16.982Z" agent="Mozilla/5.0 (Windows NT 10.0; Win64; x64) AppleWebKit/537.36 (KHTML, like Gecko) Chrome/126.0.0.0 Safari/537.36" version="24.5.5" etag="jaJ2A1Q5AzQch7axBorX" type="github">
  <diagram name="PÃ¡gina-1" id="BcGyX1hR_rxslVmYQt69">
    <mxGraphModel>
      <root>
        <mxCell id="0" />
        <mxCell id="1" parent="0" />
      </root>
    </mxGraphModel>
  </diagram>
</mxfile>
